<svg width="25" height="23" viewBox="0 0 25 23" fill="none" xmlns="http://www.w3.org/2000/svg">
<g filter="url(#filter0_d_626_92)">
<path d="M8.125 0.0834961H16.875C20.2083 0.0834961 22.9167 2.79183 22.9167 6.12516V14.8752C22.9167 16.4775 22.2801 18.0142 21.1471 19.1473C20.0141 20.2803 18.4774 20.9168 16.875 20.9168H8.125C4.79167 20.9168 2.08333 18.2085 2.08333 14.8752V6.12516C2.08333 4.52281 2.71986 2.98609 3.8529 1.85306C4.98593 0.720027 6.52265 0.0834961 8.125 0.0834961ZM7.91667 2.16683C6.92211 2.16683 5.96828 2.56192 5.26502 3.26518C4.56175 3.96844 4.16667 4.92227 4.16667 5.91683V15.0835C4.16667 17.1564 5.84375 18.8335 7.91667 18.8335H17.0833C18.0779 18.8335 19.0317 18.4384 19.735 17.7351C20.4382 17.0319 20.8333 16.0781 20.8333 15.0835V5.91683C20.8333 3.84391 19.1563 2.16683 17.0833 2.16683H7.91667ZM17.9688 3.72933C18.3141 3.72933 18.6453 3.86651 18.8895 4.1107C19.1337 4.35489 19.2708 4.68608 19.2708 5.03141C19.2708 5.37675 19.1337 5.70794 18.8895 5.95213C18.6453 6.19631 18.3141 6.3335 17.9688 6.3335C17.6234 6.3335 17.2922 6.19631 17.048 5.95213C16.8039 5.70794 16.6667 5.37675 16.6667 5.03141C16.6667 4.68608 16.8039 4.35489 17.048 4.1107C17.2922 3.86651 17.6234 3.72933 17.9688 3.72933ZM12.5 5.29183C13.8813 5.29183 15.2061 5.84056 16.1828 6.81732C17.1596 7.79407 17.7083 9.11883 17.7083 10.5002C17.7083 11.8815 17.1596 13.2063 16.1828 14.183C15.2061 15.1598 13.8813 15.7085 12.5 15.7085C11.1187 15.7085 9.7939 15.1598 8.81715 14.183C7.8404 13.2063 7.29167 11.8815 7.29167 10.5002C7.29167 9.11883 7.8404 7.79407 8.81715 6.81732C9.7939 5.84056 11.1187 5.29183 12.5 5.29183ZM12.5 7.37516C11.6712 7.37516 10.8763 7.7044 10.2903 8.29045C9.70424 8.87651 9.375 9.67136 9.375 10.5002C9.375 11.329 9.70424 12.1238 10.2903 12.7099C10.8763 13.2959 11.6712 13.6252 12.5 13.6252C13.3288 13.6252 14.1237 13.2959 14.7097 12.7099C15.2958 12.1238 15.625 11.329 15.625 10.5002C15.625 9.67136 15.2958 8.87651 14.7097 8.29045C14.1237 7.7044 13.3288 7.37516 12.5 7.37516Z" fill="#363636"/>
</g>
<defs>
<filter id="filter0_d_626_92" x="-1.91667" y="0.0834961" width="28.8333" height="28.8335" filterUnits="userSpaceOnUse" color-interpolation-filters="sRGB">
<feFlood flood-opacity="0" result="BackgroundImageFix"/>
<feColorMatrix in="SourceAlpha" type="matrix" values="0 0 0 0 0 0 0 0 0 0 0 0 0 0 0 0 0 0 127 0" result="hardAlpha"/>
<feOffset dy="4"/>
<feGaussianBlur stdDeviation="2"/>
<feComposite in2="hardAlpha" operator="out"/>
<feColorMatrix type="matrix" values="0 0 0 0 0 0 0 0 0 0 0 0 0 0 0 0 0 0 0.25 0"/>
<feBlend mode="normal" in2="BackgroundImageFix" result="effect1_dropShadow_626_92"/>
<feBlend mode="normal" in="SourceGraphic" in2="effect1_dropShadow_626_92" result="shape"/>
</filter>
</defs>
</svg>
