<svg width="19" height="19" viewBox="0 0 19 19" fill="none" xmlns="http://www.w3.org/2000/svg">
<path d="M3.8125 2.20833C3.875 3.13542 4.03125 4.04167 4.28125 4.90625L3.03125 6.15625C2.60417 4.90625 2.33333 3.58333 2.23958 2.20833H3.8125ZM14.0833 14.7292C14.9687 14.9792 15.875 15.1354 16.7917 15.1979V16.75C15.4167 16.6562 14.0937 16.3854 12.8333 15.9687L14.0833 14.7292ZM4.8125 0.125H1.16667C0.59375 0.125 0.125 0.59375 0.125 1.16667C0.125 10.9479 8.05208 18.875 17.8333 18.875C18.4062 18.875 18.875 18.4062 18.875 17.8333V14.1979C18.875 13.625 18.4062 13.1562 17.8333 13.1562C16.5417 13.1562 15.2812 12.9479 14.1146 12.5625C14.0112 12.525 13.9016 12.5073 13.7917 12.5104C13.5208 12.5104 13.2604 12.6146 13.0521 12.8125L10.7604 15.1042C7.80774 13.5942 5.40584 11.1923 3.89583 8.23958L6.1875 5.94792C6.47917 5.65625 6.5625 5.25 6.44792 4.88542C6.05276 3.68548 5.85231 2.43 5.85417 1.16667C5.85417 0.59375 5.38542 0.125 4.8125 0.125Z" fill="#363636"/>
</svg>
