<svg width="22" height="19" viewBox="0 0 22 19" fill="none" xmlns="http://www.w3.org/2000/svg">
<path fill-rule="evenodd" clip-rule="evenodd" d="M5.02916 11.6039C5.07392 11.6189 5.11995 11.6297 5.16666 11.6362C5.46137 12.3307 5.75443 13.0258 6.04583 13.7217C6.56979 14.9737 7.09791 16.2633 7.21354 16.6342C7.35833 17.0904 7.51041 17.4008 7.67708 17.6133C7.76354 17.7217 7.8625 17.8175 7.97916 17.8904C8.03994 17.9284 8.10497 17.9592 8.17291 17.9821C8.50625 18.1071 8.81041 18.055 9.00104 17.9915C9.1129 17.9533 9.21935 17.9007 9.31771 17.8352L9.32291 17.8331L12.2667 15.9977L15.6677 18.604C15.7177 18.6425 15.7719 18.6748 15.8302 18.7008C16.2385 18.8779 16.6344 18.9404 17.0073 18.8904C17.3781 18.8383 17.6729 18.6831 17.8927 18.5071C18.1451 18.3037 18.3463 18.0439 18.4802 17.7487L18.4896 17.7258L18.4927 17.7175L18.4948 17.7133V17.7112L18.4958 17.7102C18.5139 17.6654 18.5279 17.619 18.5375 17.5717L21.6417 1.92062C21.6515 1.87052 21.6564 1.81958 21.6562 1.76853C21.6562 1.3102 21.4833 0.873741 21.0781 0.610199C20.7302 0.384157 20.3437 0.37374 20.099 0.39249C19.8365 0.413324 19.5927 0.477907 19.4292 0.52999C19.3376 0.559006 19.2473 0.591671 19.1583 0.627907L19.1469 0.633115L1.73646 7.46228L1.73437 7.46332C1.67547 7.48499 1.61743 7.50897 1.56041 7.5352C1.42235 7.59727 1.28992 7.67116 1.16458 7.75603C0.928122 7.91749 0.38333 8.36124 0.476039 9.09457C0.548955 9.67791 0.948955 10.0373 1.19375 10.2102C1.32708 10.305 1.45416 10.3727 1.54791 10.4175C1.58958 10.4383 1.67916 10.4737 1.71771 10.4904L1.72812 10.4935L5.02916 11.6039ZM19.7562 2.07062H19.7542C19.7452 2.0746 19.7362 2.07842 19.7271 2.08207L2.29583 8.92062C2.28686 8.92424 2.27783 8.92771 2.26875 8.93103L2.25833 8.93416C2.22649 8.94667 2.19521 8.96057 2.16458 8.97582C2.19357 8.99243 2.22348 9.00739 2.25416 9.02062L5.52708 10.1227C5.58557 10.1424 5.64151 10.169 5.69375 10.2019L16.5031 3.87374L16.5135 3.86853C16.5555 3.84302 16.5986 3.81938 16.6427 3.7977C16.7177 3.75916 16.8375 3.70291 16.9729 3.66124C17.0667 3.63207 17.3448 3.54978 17.6448 3.64666C17.8039 3.69681 17.9457 3.79071 18.054 3.91762C18.1623 4.04453 18.2328 4.19934 18.2573 4.36437C18.2961 4.5089 18.2972 4.66097 18.2604 4.80603C18.1875 5.09249 17.9875 5.31541 17.8052 5.48624C17.649 5.63207 15.6219 7.58624 13.6229 9.51541L10.901 12.1404L10.4167 12.6092L16.5333 17.2987C16.6159 17.3334 16.7056 17.3477 16.7948 17.3404C16.8397 17.3343 16.882 17.3155 16.9167 17.2862C16.9589 17.2506 16.9951 17.2084 17.024 17.1612L17.026 17.1602L20.0365 1.97999C19.9416 2.0028 19.8486 2.03275 19.7583 2.06957L19.7562 2.07062ZM10.9427 14.981L9.72187 14.0456L9.42604 15.9258L10.9427 14.981ZM8.60208 12.1894L9.81562 11.0175L12.5375 8.39041L13.551 7.41332L6.75937 11.3894L6.79583 11.4748C7.22417 12.4867 7.64779 13.5006 8.06666 14.5164L8.36146 12.6414C8.38813 12.4675 8.47295 12.3089 8.60208 12.1894Z" fill="#363636"/>
</svg>
