<svg width="30" height="31" viewBox="0 0 30 31" fill="none" xmlns="http://www.w3.org/2000/svg">
<path d="M13 15.5C11.625 15.5 10.5 14.3375 10.5 12.9167C10.5 11.4958 11.625 10.3333 13 10.3333C14.375 10.3333 15.5 11.4958 15.5 12.9167C15.5 14.3375 14.375 15.5 13 15.5ZM20.5 13.175C20.5 8.48626 17.1875 5.16668 13 5.16668C8.8125 5.16668 5.5 8.48626 5.5 13.175C5.5 16.1975 7.9375 20.2017 13 24.9808C18.0625 20.2017 20.5 16.1975 20.5 13.175ZM13 2.58334C18.25 2.58334 23 6.74251 23 13.175C23 17.4633 19.6625 22.5396 13 28.4167C6.3375 22.5396 3 17.4633 3 13.175C3 6.74251 7.75 2.58334 13 2.58334Z" fill="#005E93"/>
</svg>
