<svg width="30" height="30" viewBox="0 0 30 30" fill="none" xmlns="http://www.w3.org/2000/svg">
<g clip-path="url(#clip0_455_288)">
<path d="M21.4482 8.55467C20.9608 8.06707 20.6754 7.41342 20.6491 6.72445C20.6228 6.03549 20.8576 5.36199 21.3064 4.83866C21.3436 4.79513 21.3629 4.73918 21.3605 4.68203C21.3581 4.62487 21.3342 4.57073 21.2936 4.53045L18.7078 1.94178C18.6651 1.89906 18.6071 1.87506 18.5467 1.87506C18.4862 1.87506 18.4283 1.89906 18.3855 1.94178L14.2641 6.06327C14.112 6.21529 13.9974 6.40066 13.9295 6.60467C13.8618 6.80915 13.7474 6.99505 13.5953 7.14761C13.4433 7.30017 13.2578 7.4152 13.0535 7.48358C12.8494 7.5516 12.6638 7.66614 12.5115 7.81815L1.9418 18.3855C1.89907 18.4283 1.87508 18.4862 1.87508 18.5467C1.87508 18.6071 1.89907 18.6651 1.9418 18.7078L4.52754 21.2935C4.56781 21.3342 4.62195 21.3581 4.67911 21.3605C4.73627 21.3629 4.79222 21.3436 4.83574 21.3064C5.35897 20.8571 6.03261 20.6219 6.72181 20.6481C7.41102 20.6742 8.06492 20.9597 8.55261 21.4474C9.0403 21.9351 9.32579 22.589 9.35192 23.2782C9.37806 23.9674 9.14291 24.641 8.69355 25.1642C8.65643 25.2078 8.63713 25.2637 8.63952 25.3209C8.64191 25.378 8.66582 25.4322 8.70645 25.4724L11.2922 28.0582C11.3349 28.1009 11.3929 28.1249 11.4533 28.1249C11.5138 28.1249 11.5717 28.1009 11.6145 28.0582L22.1848 17.4885C22.3368 17.3362 22.4513 17.1506 22.5193 16.9465C22.587 16.742 22.7014 16.5561 22.8535 16.4035C23.0056 16.251 23.1911 16.1359 23.3953 16.0676C23.5993 15.9996 23.7847 15.8851 23.9367 15.733L28.0582 11.6115C28.1009 11.5688 28.1249 11.5108 28.1249 11.4504C28.1249 11.3899 28.1009 11.332 28.0582 11.2892L25.4725 8.7035C25.4322 8.66287 25.378 8.63897 25.3209 8.63657C25.2637 8.63418 25.2078 8.65349 25.1643 8.69061C24.6416 9.14024 23.9686 9.37603 23.2796 9.35083C22.5907 9.32563 21.9366 9.04129 21.4482 8.55467Z" stroke="#005E93" stroke-width="2" stroke-miterlimit="10"/>
<path d="M14.6777 8.22892L13.7104 7.26154M17.257 10.8082L16.6119 10.1637M19.8363 13.3881L19.1918 12.743M22.7385 16.2897L21.7711 15.3223" stroke="#005E93" stroke-width="2" stroke-miterlimit="10" stroke-linecap="round"/>
</g>
<defs>
<clipPath id="clip0_455_288">
<rect width="30" height="30" fill="white"/>
</clipPath>
</defs>
</svg>
