<svg width="68" height="68" viewBox="0 0 68 68" fill="none" xmlns="http://www.w3.org/2000/svg">
<g clip-path="url(#clip0_369_143)">
<path d="M19.2882 0C19.9194 0 20.5248 0.250749 20.9711 0.697086C21.4175 1.14342 21.6682 1.74878 21.6682 2.38V6.8306H47.226V2.4106C47.226 1.77938 47.4767 1.17402 47.9231 0.727686C48.3694 0.281349 48.9748 0.0306 49.606 0.0306C50.2372 0.0306 50.8426 0.281349 51.2889 0.727686C51.7353 1.17402 51.986 1.77938 51.986 2.4106V6.8306H61.2C63.0029 6.8306 64.732 7.54656 66.0071 8.82107C67.2823 10.0956 67.9991 11.8243 68 13.6272V61.2034C67.9991 63.0063 67.2823 64.735 66.0071 66.0095C64.732 67.284 63.0029 68 61.2 68H6.8C4.99712 68 3.26803 67.284 1.99288 66.0095C0.717726 64.735 0.000901442 63.0063 0 61.2034L0 13.6272C0.000901442 11.8243 0.717726 10.0956 1.99288 8.82107C3.26803 7.54656 4.99712 6.8306 6.8 6.8306H16.9082V2.3766C16.9091 1.74597 17.1602 1.14148 17.6065 0.695883C18.0527 0.250282 18.6576 -6.43496e-07 19.2882 0ZM4.76 26.3228V61.2034C4.76 61.4713 4.81277 61.7366 4.91529 61.9841C5.01781 62.2316 5.16807 62.4565 5.3575 62.6459C5.54693 62.8353 5.77182 62.9856 6.01933 63.0881C6.26683 63.1906 6.5321 63.2434 6.8 63.2434H61.2C61.4679 63.2434 61.7332 63.1906 61.9807 63.0881C62.2282 62.9856 62.4531 62.8353 62.6425 62.6459C62.8319 62.4565 62.9822 62.2316 63.0847 61.9841C63.1872 61.7366 63.24 61.4713 63.24 61.2034V26.3704L4.76 26.3228ZM22.6678 49.7046V55.369H17V49.7046H22.6678ZM36.8322 49.7046V55.369H31.1678V49.7046H36.8322ZM51 49.7046V55.369H45.3322V49.7046H51ZM22.6678 36.1828V41.8472H17V36.1828H22.6678ZM36.8322 36.1828V41.8472H31.1678V36.1828H36.8322ZM51 36.1828V41.8472H45.3322V36.1828H51ZM16.9082 11.5872H6.8C6.5321 11.5872 6.26683 11.64 6.01933 11.7425C5.77182 11.845 5.54693 11.9953 5.3575 12.1847C5.16807 12.3741 5.01781 12.599 4.91529 12.8465C4.81277 13.094 4.76 13.3593 4.76 13.6272V21.5662L63.24 21.6138V13.6272C63.24 13.3593 63.1872 13.094 63.0847 12.8465C62.9822 12.599 62.8319 12.3741 62.6425 12.1847C62.4531 11.9953 62.2282 11.845 61.9807 11.7425C61.7332 11.64 61.4679 11.5872 61.2 11.5872H51.986V14.7458C51.986 15.377 51.7353 15.9824 51.2889 16.4287C50.8426 16.8751 50.2372 17.1258 49.606 17.1258C48.9748 17.1258 48.3694 16.8751 47.9231 16.4287C47.4767 15.9824 47.226 15.377 47.226 14.7458V11.5872H21.6682V14.7152C21.6682 15.3464 21.4175 15.9518 20.9711 16.3981C20.5248 16.8445 19.9194 17.0952 19.2882 17.0952C18.657 17.0952 18.0516 16.8445 17.6053 16.3981C17.1589 15.9518 16.9082 15.3464 16.9082 14.7152V11.5872Z" fill="#F2F6FF"/>
</g>
<defs>
<clipPath id="clip0_369_143">
<rect width="68" height="68" fill="white"/>
</clipPath>
</defs>
</svg>
