<svg width="90" height="32" viewBox="0 0 90 32" fill="none" xmlns="http://www.w3.org/2000/svg">
<path d="M5.4 25H0L3.375 9.125H8.8L5.4 25ZM16.1343 14.08C17.4676 14.08 18.541 14.48 19.3543 15.28C20.181 16.08 20.5943 17.2667 20.5943 18.84V25H17.4743V19.32C17.4743 18.4667 17.2876 17.8333 16.9143 17.42C16.541 16.9933 16.001 16.78 15.2943 16.78C14.5076 16.78 13.881 17.0267 13.4143 17.52C12.9476 18 12.7143 18.72 12.7143 19.68V25H9.5943V14.24H12.5743V15.5C12.9876 15.0467 13.501 14.7 14.1143 14.46C14.7276 14.2067 15.401 14.08 16.1343 14.08ZM35.8324 25H29.9824L29.6324 21.025H25.0074L23.2324 25H20.8074L28.1824 9.125H34.1074L35.8324 25ZM25.8324 19.2H29.4574L28.8824 12.4L25.8324 19.2Z" fill="#F2F6FF"/>
<path d="M43.6615 25.16C42.5148 25.16 41.4815 24.9267 40.5615 24.46C39.6548 23.98 38.9415 23.32 38.4215 22.48C37.9148 21.64 37.6615 20.6867 37.6615 19.62C37.6615 18.5533 37.9148 17.6 38.4215 16.76C38.9415 15.92 39.6548 15.2667 40.5615 14.8C41.4815 14.32 42.5148 14.08 43.6615 14.08C44.7948 14.08 45.7815 14.32 46.6215 14.8C47.4748 15.2667 48.0948 15.94 48.4815 16.82L46.0615 18.12C45.5015 17.1333 44.6948 16.64 43.6415 16.64C42.8282 16.64 42.1548 16.9067 41.6215 17.44C41.0882 17.9733 40.8215 18.7 40.8215 19.62C40.8215 20.54 41.0882 21.2667 41.6215 21.8C42.1548 22.3333 42.8282 22.6 43.6415 22.6C44.7082 22.6 45.5148 22.1067 46.0615 21.12L48.4815 22.44C48.0948 23.2933 47.4748 23.96 46.6215 24.44C45.7815 24.92 44.7948 25.16 43.6615 25.16ZM56.6798 24.48C56.3731 24.7067 55.9931 24.88 55.5398 25C55.0998 25.1067 54.6398 25.16 54.1598 25.16C52.8664 25.16 51.8731 24.8333 51.1798 24.18C50.4864 23.5267 50.1398 22.5667 50.1398 21.3V11.86H53.2598V14.48H55.9198V16.88H53.2598V21.26C53.2598 21.7133 53.3731 22.0667 53.5998 22.32C53.8264 22.56 54.1531 22.68 54.5798 22.68C55.0598 22.68 55.4864 22.5467 55.8598 22.28L56.6798 24.48ZM58.442 14.24H61.562V25H58.442V14.24ZM60.002 12.74C59.4286 12.74 58.962 12.5733 58.602 12.24C58.242 11.9067 58.062 11.4933 58.062 11C58.062 10.5067 58.242 10.0933 58.602 9.76C58.962 9.42667 59.4286 9.26 60.002 9.26C60.5753 9.26 61.042 9.42 61.402 9.74C61.762 10.06 61.942 10.46 61.942 10.94C61.942 11.46 61.762 11.8933 61.402 12.24C61.042 12.5733 60.5753 12.74 60.002 12.74ZM69.5776 25.16C68.4442 25.16 67.4242 24.9267 66.5176 24.46C65.6242 23.98 64.9242 23.32 64.4176 22.48C63.9109 21.64 63.6576 20.6867 63.6576 19.62C63.6576 18.5533 63.9109 17.6 64.4176 16.76C64.9242 15.92 65.6242 15.2667 66.5176 14.8C67.4242 14.32 68.4442 14.08 69.5776 14.08C70.7109 14.08 71.7242 14.32 72.6176 14.8C73.5109 15.2667 74.2109 15.92 74.7176 16.76C75.2242 17.6 75.4776 18.5533 75.4776 19.62C75.4776 20.6867 75.2242 21.64 74.7176 22.48C74.2109 23.32 73.5109 23.98 72.6176 24.46C71.7242 24.9267 70.7109 25.16 69.5776 25.16ZM69.5776 22.6C70.3776 22.6 71.0309 22.3333 71.5376 21.8C72.0576 21.2533 72.3176 20.5267 72.3176 19.62C72.3176 18.7133 72.0576 17.9933 71.5376 17.46C71.0309 16.9133 70.3776 16.64 69.5776 16.64C68.7776 16.64 68.1176 16.9133 67.5976 17.46C67.0776 17.9933 66.8176 18.7133 66.8176 19.62C66.8176 20.5267 67.0776 21.2533 67.5976 21.8C68.1176 22.3333 68.7776 22.6 69.5776 22.6ZM84.103 14.08C85.4364 14.08 86.5097 14.48 87.323 15.28C88.1497 16.08 88.563 17.2667 88.563 18.84V25H85.443V19.32C85.443 18.4667 85.2564 17.8333 84.883 17.42C84.5097 16.9933 83.9697 16.78 83.263 16.78C82.4764 16.78 81.8497 17.0267 81.383 17.52C80.9164 18 80.683 18.72 80.683 19.68V25H77.563V14.24H80.543V15.5C80.9564 15.0467 81.4697 14.7 82.083 14.46C82.6964 14.2067 83.3697 14.08 84.103 14.08Z" fill="#F2F6FF"/>
<path d="M37.85 25H32L31.65 21.025H27.025L25.25 25H22.825L30.2 9.125H36.125L37.85 25ZM27.85 19.2H31.475L30.9 12.4L27.85 19.2Z" fill="white" fill-opacity="0.2"/>
<circle cx="6.5" cy="4.5" r="3.5" fill="#363636"/>
<circle cx="8.5" cy="4.5" r="3.5" fill="#363636" fill-opacity="0.2"/>
<circle cx="6" cy="4" r="2" fill="#F2F6FF"/>
<path d="M8.4 25H3L6.375 9.125H11.8L8.4 25Z" fill="white" fill-opacity="0.2"/>
</svg>
